<svg width="30" height="27" viewBox="0 0 30 27" fill="none" xmlns="http://www.w3.org/2000/svg">
<g filter="url(#filter0_d_28212_194)">
<path d="M24.2991 9.78586C26.567 7.54338 26.567 3.90213 24.2991 1.68186C22.0311 -0.560619 18.3486 -0.560619 16.0806 1.68186L14.9804 2.792L13.8801 1.70406C11.6121 -0.560619 7.92957 -0.560619 5.6841 1.68186C4.58382 2.76979 4 4.21297 4 5.74496C4 7.27695 4.60628 8.72013 5.6841 9.80806L14.9804 19L24.2991 9.78586ZM5.4371 5.74496C5.4371 4.59042 5.8862 3.52469 6.71702 2.72539C7.5703 1.88168 8.67058 1.45983 9.77086 1.45983C10.8711 1.45983 11.9714 1.88168 12.8247 2.72539L14.9804 4.83465L17.136 2.70318C18.8201 1.03798 21.582 1.03798 23.2437 2.70318C24.0521 3.50248 24.5236 4.56822 24.5236 5.72276C24.5236 6.8773 24.0745 7.94303 23.2437 8.74233L14.9804 16.9351L6.71702 8.76453C5.90865 7.94303 5.4371 6.8773 5.4371 5.74496Z" fill="black"/>
<path d="M23.9475 2.03741L23.9493 2.03914C26.0159 4.06237 26.0185 7.38257 23.9475 9.43032L14.9804 18.2968L6.0393 9.45616C6.03872 9.45557 6.03813 9.45498 6.03754 9.45438C5.05163 8.45832 4.5 7.14158 4.5 5.74496C4.5 4.34306 5.03283 3.02898 6.03566 2.0374L6.03566 2.03741L6.03742 2.03565C8.08643 -0.0106296 11.4528 -0.0131433 13.5268 2.05787L13.5285 2.0596L14.6288 3.14754L14.9839 3.49868L15.3355 3.14397L16.4339 2.03566C18.5072 -0.0124666 21.875 -0.0118871 23.9475 2.03741ZM14.6288 17.2907L14.9808 17.6388L15.3324 17.2902L23.5931 9.09997C24.5212 8.2057 25.0236 7.01052 25.0236 5.72276C25.0236 4.42842 24.4941 3.23704 23.5964 2.34882C21.738 0.487735 18.6616 0.491524 16.7845 2.34764L14.9785 4.13331L13.1763 2.36984C13.176 2.36954 13.1756 2.36924 13.1753 2.36894C12.2265 1.43125 10.9995 0.959831 9.77086 0.959831C8.54292 0.959831 7.3165 1.43075 6.36789 2.36745C5.43963 3.26175 4.9371 4.45705 4.9371 5.74496C4.9371 7.02006 5.46865 8.20876 6.36063 9.11523L6.3606 9.11526L6.36547 9.12008L14.6288 17.2907Z" stroke="black"/>
</g>
<defs>
<filter id="filter0_d_28212_194" x="0" y="0" width="30" height="27" filterUnits="userSpaceOnUse" color-interpolation-filters="sRGB">
<feFlood flood-opacity="0" result="BackgroundImageFix"/>
<feColorMatrix in="SourceAlpha" type="matrix" values="0 0 0 0 0 0 0 0 0 0 0 0 0 0 0 0 0 0 127 0" result="hardAlpha"/>
<feOffset dy="4"/>
<feGaussianBlur stdDeviation="2"/>
<feComposite in2="hardAlpha" operator="out"/>
<feColorMatrix type="matrix" values="0 0 0 0 0 0 0 0 0 0 0 0 0 0 0 0 0 0 0.25 0"/>
<feBlend mode="normal" in2="BackgroundImageFix" result="effect1_dropShadow_28212_194"/>
<feBlend mode="normal" in="SourceGraphic" in2="effect1_dropShadow_28212_194" result="shape"/>
</filter>
</defs>
</svg>
